<svg width="500" height="500" viewBox="0 0 500 500" fill="none" xmlns="http://www.w3.org/2000/svg">
<path d="M171.056 110.111C175.913 127.79 177.661 146.44 178.632 164.506C180.575 203.749 177.661 243.185 172.999 282.039C172.222 286.895 166.976 288.644 162.703 288.838C159.011 289.032 151.629 286.701 152.212 282.039C152.795 277.765 153.378 273.685 153.766 269.411C156.874 241.242 159.011 212.685 159.4 184.128C138.03 181.214 118.215 190.15 98.7883 199.475C100.925 207.44 101.897 215.793 102.285 223.758C103.256 237.163 103.451 251.733 98.7883 264.36C98.594 264.943 98.2055 265.137 97.6227 265.137C96.6513 265.526 95.4857 265.72 94.5144 265.137C92.766 263.777 91.2118 262.223 89.852 260.669C82.664 252.121 80.3328 240.077 79.1672 229.392C78.1959 222.593 78.0016 215.793 78.0016 208.994C76.0589 209.965 74.1162 210.742 71.9793 211.519C62.0716 215.016 48.6671 215.988 44.976 203.749C41.6735 193.258 45.7531 179.659 53.9124 172.471C60.3232 166.838 69.2595 165.089 77.2245 168.003C78.7787 168.586 80.3328 169.363 81.4984 170.14C83.4411 158.29 85.9666 146.634 89.2692 135.172C93.1545 120.99 98.0112 107.003 105.005 93.9872C109.473 85.6336 115.301 76.1145 124.043 71.4521C132.591 67.1782 144.247 69.5094 151.435 75.5317C155.515 78.8343 160.566 84.6623 163.48 90.1018C166.782 96.5127 169.113 103.312 171.056 110.111ZM79.75 183.739C80.1386 180.631 80.5271 177.328 81.1099 174.026C79.1672 172.471 77.0303 171.112 74.6991 170.335C65.3742 167.226 56.0493 173.054 51.9697 181.408C47.8901 189.373 44.5875 208.217 57.0207 210.937C63.043 212.296 69.4538 208.994 74.6991 206.857C75.8647 206.274 77.0303 205.691 78.1959 205.303C78.3901 198.115 78.973 190.927 79.75 183.739ZM83.6354 195.395C83.4411 197.921 83.2469 200.446 83.2469 202.972C86.1609 201.612 89.2692 200.058 92.3775 198.503C92.9603 198.309 93.5431 197.921 94.1259 197.726C92.3775 191.704 90.2405 186.07 86.9379 181.019C86.3551 180.242 85.7723 179.465 85.1895 178.688C84.6067 184.322 84.0239 189.956 83.6354 195.395ZM98.7883 245.516C99.1768 237.551 98.9826 229.586 98.3998 221.621C97.817 215.016 96.8456 208.023 95.0972 201.223C91.0176 203.166 87.1322 205.109 83.0526 206.857C82.8583 217.153 83.2469 227.255 85.1895 237.163C86.7437 245.711 89.6577 255.618 96.4571 261.446C97.817 256.395 98.3998 250.956 98.7883 245.516ZM159.4 180.436C159.4 172.083 159.4 163.729 159.206 155.376C159.011 146.44 158.429 137.503 157.457 128.761C156.68 121.185 155.515 113.025 153.96 106.42C153.183 103.118 152.212 99.8152 151.241 96.7069C150.269 93.4044 149.492 90.8789 148.521 88.3534C146.967 83.691 144.247 80.3884 140.556 76.6973C138.225 74.3661 134.534 72.6177 130.454 72.8119C127.734 73.0062 124.237 75.1432 121.906 77.2801C113.941 84.8566 108.696 95.347 104.422 105.255C95.0972 126.818 89.0749 150.325 85.9666 173.831C87.715 175.58 89.2692 177.522 90.629 179.854C93.7373 184.71 96.0685 190.15 97.817 195.784C117.05 186.459 137.836 178.105 159.4 180.436Z" fill="white"/>
<path d="M289.57 287.757C290.153 288.729 292.095 289.117 289.181 291.06C288.404 291.449 287.433 291.643 286.656 291.643C285.49 291.643 284.13 291.254 283.353 290.477C280.828 293.003 278.302 295.722 275.777 298.248C277.914 300.579 280.245 302.716 282.576 304.853C284.13 306.213 280.245 307.184 279.079 306.213C277.137 304.465 275.194 302.716 273.251 300.773C267.812 306.407 261.789 311.458 253.63 313.595C247.025 315.538 239.449 315.344 233.232 312.041C227.404 309.321 223.907 303.687 222.547 297.471C219.828 284.261 227.987 272.216 234.98 261.726C237.117 258.229 239.449 254.732 241.586 251.429C239.643 245.99 238.089 240.356 236.729 234.722C234.203 222.872 232.843 210.439 234.786 198.2C236.535 186.738 241.78 174.499 252.465 168.477C261.789 163.037 273.251 165.951 278.885 175.47C285.49 187.127 282.965 200.92 277.719 212.77C271.891 225.592 263.538 237.248 256.156 249.098C253.824 252.595 251.687 255.897 249.551 259.394C255.184 271.439 262.372 282.706 271.114 292.808C273.64 290.283 275.971 287.563 278.496 285.232C278.108 284.843 277.719 284.455 277.331 284.066C276.942 283.872 276.748 283.484 276.554 283.095C276.554 282.901 276.554 282.706 276.36 282.512C276.36 281.929 276.942 281.347 277.525 280.958C278.108 280.375 279.079 280.181 279.856 280.181C280.633 280.181 281.799 280.375 282.382 280.958C283.742 281.929 284.907 282.901 286.073 284.066C287.044 284.843 288.016 285.815 288.793 286.786C288.987 286.98 289.181 287.369 289.375 287.563C289.57 287.563 289.57 287.757 289.57 287.757ZM238.089 205.971C237.7 218.015 239.837 230.448 243.14 242.104C243.722 243.659 244.111 245.213 244.694 246.767C249.356 239.579 254.213 232.391 258.681 225.009C265.286 213.741 271.503 201.502 272.28 188.292C272.863 182.658 272.474 177.219 269.949 171.974C266.646 165.563 257.127 168.477 252.659 171.585C242.168 179.162 238.477 193.732 238.089 205.971ZM249.162 307.767C257.127 306.213 262.955 301.162 268.395 295.722C259.652 286.009 252.465 275.324 246.831 263.668C245.859 265.417 244.694 266.971 243.722 268.719C239.837 274.547 235.952 280.375 234.398 287.175C232.261 296.888 237.506 309.904 249.162 307.767Z" fill="white"/>
<path d="M431.54 274.523C432.317 283.848 433.288 292.978 433.482 302.303C434.648 340.574 432.511 379.428 427.654 417.504C427.072 422.361 422.021 423.915 417.747 424.109C415.61 424.109 412.696 423.527 410.753 422.167C409.393 421.39 407.645 419.253 407.839 417.504C408.422 413.425 409.005 409.151 409.587 405.071C414.25 367.772 416.581 330.084 415.998 292.396C415.804 287.927 416.193 283.459 415.998 278.991C415.804 274.717 415.61 270.638 415.221 266.364C414.638 258.787 413.861 251.211 413.084 243.829C412.113 237.612 411.53 231.784 409.782 225.956C409.005 223.43 408.228 221.099 407.256 218.768C406.285 216.631 405.508 214.688 404.731 213.134C403.759 210.609 401.817 208.278 399.097 207.889C396.572 207.5 393.658 208.666 391.132 210.414C383.556 216.048 379.476 226.344 376.368 234.892C371.317 248.297 368.014 262.478 365.294 276.66C361.992 293.173 359.661 309.685 357.524 326.393C353.833 357.087 351.696 387.976 349.364 418.864C349.364 419.253 349.17 419.447 348.782 419.641C348.782 420.418 348.782 421.001 348.587 421.584C348.199 425.469 340.817 425.858 339.651 422.361C336.348 414.007 334.989 404.877 333.629 395.94C332.463 387.393 331.297 378.845 330.52 370.297C327.995 340.963 327.218 311.628 328.189 282.099C328.578 268.501 329.549 254.902 330.715 241.303C331.492 234.504 332.269 227.899 333.046 221.099C333.434 217.602 333.434 212.551 335.766 209.832C339.068 205.946 345.285 205.752 349.559 207.306C352.084 208.278 354.415 210.414 354.61 213.134C354.804 216.825 353.833 220.516 353.25 224.013C352.861 227.51 352.473 230.813 352.084 234.115C351.307 241.303 350.53 248.491 349.947 255.679C347.616 282.488 347.033 309.297 347.033 336.106C347.033 348.539 347.616 360.778 348.005 373.017C349.753 351.842 352.084 330.861 354.998 309.88C357.329 293.367 360.049 276.854 363.934 260.536C366.849 247.714 370.54 234.504 376.562 222.653C380.253 215.271 385.693 207.112 394.24 204.975C397.931 204.004 401.817 204.392 405.314 205.946C406.868 206.529 408.81 207.695 410.559 208.86C412.696 210.609 414.25 211.774 415.61 213.911C422.603 223.819 426.1 237.612 428.432 250.045C429.986 258.01 430.957 266.364 431.54 274.523Z" fill="white"/>
</svg>
